<?xml version="1.0" encoding="utf-8"?>
<!-- Generator: Adobe Illustrator 22.0.1, SVG Export Plug-In . SVG Version: 6.00 Build 0)  -->
<svg version="1.1" id="Camada_1" xmlns="http://www.w3.org/2000/svg" xmlns:xlink="http://www.w3.org/1999/xlink" x="0px" y="0px"
	 viewBox="0 0 712.3 231.8" style="enable-background:new 0 0 712.3 231.8;" xml:space="preserve">
<style type="text/css">
	.st0{fill:#FEFFFF;}
	.st1{fill:#17252A;}
	.st2{fill:#2B7A78;}
	.st3{fill:#3AAFA9;}
	.st4{fill:#DEF2F1;}
</style>
<g>
	<g>
		<path class="st0" d="M330.6,185.2c0,1.8-0.5,3.8-1.6,6.1c-6.5,12.2-16.3,22-29.4,29.4c-13.1,7.4-26.8,11.1-40.9,11.1
			c-22.3,0-41.4-7.9-57.3-23.8c-15.9-15.8-23.8-35-23.8-57.4c0-22.3,7.9-41.4,23.8-57.3c15.9-15.8,35-23.8,57.3-23.8
			c8,0,16.3,1.5,25,4.5c9.9,3.4,19.6,8.8,29,16.3c11.8,9.3,17.7,18,17.7,26.2c0,4.1-1.9,7.3-5.7,9.4L215.3,189
			c11.5,13.1,25.9,19.6,43.4,19.6c18.3,0,32.8-6.6,43.7-19.9c1.4-2,3.6-5,6.6-9c3-4,6.2-6,9.5-6c3.2,0,6,1.1,8.4,3.3
			C329.4,179.3,330.6,182,330.6,185.2z M302,112.3c-11.6-13.1-26.1-19.7-43.4-19.7c-16,0-29.6,5.7-40.9,17.1
			c-11.3,11.4-17,25-17,40.9c0,6.4,1,12.6,3,18.5L302,112.3z"/>
		<path class="st0" d="M449.8,98.9c0,3.1-1.3,5.8-3.8,8c-2.5,2.2-5.3,3.4-8.4,3.4s-7.1-2.9-12.1-8.8c-5-5.9-10.9-8.8-17.7-8.8
			c-6.4,0-11.9,2.3-16.4,6.9c-4.5,4.6-6.8,10-6.8,16.3v104.4c0,7.8-3.9,11.6-11.6,11.6c-7.7,0-11.6-3.9-11.6-11.6V81
			c0-7.7,3.9-11.5,11.6-11.5c5.2,0,8.8,2.3,10.7,6.9c7.3-4.6,15.4-6.9,24.1-6.9c8,0,15.8,2.1,23.4,6.4c7.6,4.3,13.2,9.9,16.8,16.8
			C449.2,95,449.8,97.1,449.8,98.9z"/>
		<path class="st0" d="M581,209.1c0,7.9-4,13.8-12.1,17.9c-6.4,3.2-13.9,4.8-22.6,4.8c-12.8,0-23.7-4.5-32.8-13.6
			c-9.1-9.1-13.6-20-13.6-32.8V92.6h-23.1c-7.8,0-11.6-3.9-11.6-11.6c0-7.7,3.9-11.5,11.6-11.5h23.1V11.6c0-7.8,3.9-11.6,11.6-11.6
			c7.7,0,11.6,3.9,11.6,11.6v57.9h23.1c7.8,0,11.6,3.8,11.6,11.5c0,7.8-3.9,11.6-11.6,11.6H523v92.7c0,6.4,2.3,11.9,6.8,16.4
			c4.5,4.6,10,6.9,16.4,6.9c5.2,0,10.2-1.9,15-5.7c4.8-3.8,8.3-5.7,10.5-5.7C577.9,197.2,581,201.2,581,209.1z"/>
		<path class="st0" d="M712.3,220.1c0,7.8-3.9,11.6-11.6,11.6c-7.8,0-11.6-3.9-11.5-11.6c-10.3,7.8-21.9,11.6-34.7,11.6
			c-15.9,0-29.6-5.7-41-17c-11.4-11.3-17.1-24.9-17.1-40.9c0-15.9,5.7-29.6,17.1-41c11.4-11.4,25-17.1,41-17.1
			c12.9,0,24.4,3.9,34.7,11.6c0-9.6-3.4-17.8-10.2-24.7c-6.8-6.8-15-10.2-24.5-10.2c-6.7,0-13.4,2.3-20.2,7c-6.7,4.7-10.9,7-12.5,7
			c-3.2,0-6-1.2-8.4-3.6c-2.4-2.4-3.6-5.2-3.6-8.4c0-2.6,1.2-5.3,3.7-8.2c9.5-11.3,23.1-17,41-17c15.9,0,29.6,5.7,40.9,17
			c11.3,11.3,17,25,17,40.9V220.1z M689.2,173.8c0-9.6-3.4-17.8-10.2-24.6c-6.8-6.8-15-10.2-24.6-10.2c-9.6,0-17.8,3.4-24.6,10.2
			c-6.8,6.8-10.2,15-10.2,24.6c0,9.6,3.4,17.8,10.2,24.6c6.8,6.8,15,10.2,24.6,10.2c9.6,0,17.8-3.4,24.6-10.2
			C685.8,191.6,689.2,183.4,689.2,173.8z"/>
		<g>
			<path class="st0" d="M8.9,152.2c3.4,0,6-2.3,6.1-5.7c0.1-5.4,0.2-10.8,0.1-16.3c-0.1-4.2,1.4-7.5,5-9.7c3.4-2.1,7-2.1,10.4-0.1
				c3.6,2,5.3,5.2,5.3,9.3c0,6.9-0.1,13.9-0.1,20.8c0,9.3,0,18.6,0,27.9c0,5.6-0.1,11.2,0.1,16.8c0.1,3.2,2.9,5.7,6.1,5.6
				c3.2-0.1,5.8-2.7,5.9-5.9c0-5.1,0-10.2,0-15.3c0-21.9-0.1-43.8,0-65.7c0-5.8,4.8-10.3,10.6-10.2c5.6,0.1,10.1,4.9,10.1,10.6
				c0,2.2,0,4.4,0,6.7c0,12.7,0,25.4,0,38.2c0,1.5-0.1,3,0.1,4.5c0.5,3.2,3.3,5.2,6.7,4.9c2.8-0.2,5.2-2.9,5.2-5.9
				c0-5.8,0-11.7,0-17.5c0-11.7,0-23.4,0-35.1c0-2,0.2-4,0.2-6.1c0-2-0.2-4.1-0.2-6.1c0.1-4.7,3.4-8.7,7.7-9.7
				c7.1-1.6,13,3.3,13,10.6c-0.1,9.3-0.1,18.7-0.1,28c0,19.2,0,38.3,0,57.5c0,6.4,0,12.9,0,19.3c0,2.8,1.7,5.1,4.2,5.9
				c2.5,0.8,5.3,0,6.7-2.3c0.7-1.1,1.1-2.6,1.1-4c0-18.7,0-37.5-0.1-56.2c0-4.2,0-8.4,0-12.6c0-4.1,0-8.2,0.1-12.3
				c0.2-5,4.7-9.2,9.7-9.4c6.2-0.2,10.8,4.3,10.9,10.5c0.1,5.1,0,10.3,0,15.4c0,7.8,0,15.5,0,23.3c0,1.2,0.2,2.4,0.7,3.4
				c1.2,2.6,3.4,3.4,6.2,3.3c3.3-0.1,5-1.6,5.1-4.9c0.1-2,0-4,0-6c0-2.4,0.8-4.5,2.4-6.4c2.4-2.9,5.4-4,9-4c1.6,0,3.3,0,4.9,0
				c-0.7-20.9-8.6-38.9-23.7-54c-15.8-15.8-35-23.8-57.4-23.8c-22.6,0-41.9,8.1-57.9,24.4V11.7C23.1,3.9,19.3,0,11.6,0
				C3.9,0,0,3.9,0,11.6v138.9c0,0.6,0,1.1,0,1.7C4,152.2,7.8,152.2,8.9,152.2z"/>
		</g>
	</g>
</g>
<g>
	<rect x="-55.8" y="-274.1" class="st1" width="120" height="120"/>
	<rect x="80.2" y="-274.1" class="st2" width="120" height="120"/>
	<rect x="216.2" y="-274.1" class="st3" width="120" height="120"/>
	<rect x="352.2" y="-274.1" class="st4" width="120" height="120"/>
	<rect x="488.2" y="-274.1" class="st0" width="120" height="120"/>
</g>
</svg>
