<?xml version="1.0" encoding="utf-8"?>
<!-- Generator: Adobe Illustrator 22.0.1, SVG Export Plug-In . SVG Version: 6.00 Build 0)  -->
<svg version="1.1" id="Camada_1" xmlns="http://www.w3.org/2000/svg" xmlns:xlink="http://www.w3.org/1999/xlink" x="0px" y="0px"
	 viewBox="0 0 162 209.7" style="enable-background:new 0 0 162 209.7;" xml:space="preserve">
<style type="text/css">
	.st0{fill:#FEFFFF;}
	.st1{fill:#17252A;}
	.st2{fill:#2B7A78;}
	.st3{fill:#3AAFA9;}
	.st4{fill:#DEF2F1;}
</style>
<g>
	<g>
		<g>
			<path class="st0" d="M8.9,152.2c3.4,0,6-2.3,6.1-5.7c0.1-5.4,0.2-10.8,0.1-16.3c-0.1-4.2,1.4-7.5,5-9.7c3.4-2.1,7-2.1,10.4-0.1
				c3.6,2,5.3,5.2,5.3,9.3c0,6.9-0.1,13.9-0.1,20.8c0,9.3,0,18.6,0,27.9c0,5.6-0.1,11.2,0.1,16.8c0.1,3.2,2.9,5.7,6.1,5.6
				c3.2-0.1,5.8-2.7,5.9-5.9c0-5.1,0-10.2,0-15.3c0-21.9-0.1-43.8,0-65.7c0-5.8,4.8-10.3,10.6-10.2c5.6,0.1,10.1,4.9,10.1,10.6
				c0,2.2,0,4.4,0,6.7c0,12.7,0,25.4,0,38.2c0,1.5-0.1,3,0.1,4.5c0.5,3.2,3.3,5.2,6.7,4.9c2.8-0.2,5.2-2.9,5.2-5.9
				c0-5.8,0-11.7,0-17.5c0-11.7,0-23.4,0-35.1c0-2,0.2-4,0.2-6.1c0-2-0.2-4.1-0.2-6.1c0.1-4.7,3.4-8.7,7.7-9.7
				c7.1-1.6,13,3.3,13,10.6c-0.1,9.3-0.1,18.7-0.1,28c0,19.2,0,38.3,0,57.5c0,6.4,0,12.9,0,19.3c0,2.8,1.7,5.1,4.2,5.9
				c2.5,0.8,5.3,0,6.7-2.3c0.7-1.1,1.1-2.6,1.1-4c0-18.7,0-37.5-0.1-56.2c0-4.2,0-8.4,0-12.6c0-4.1,0-8.2,0.1-12.3
				c0.2-5,4.7-9.2,9.7-9.4c6.2-0.2,10.8,4.3,10.9,10.5c0.1,5.1,0,10.3,0,15.4c0,7.8,0,15.5,0,23.3c0,1.2,0.2,2.4,0.7,3.4
				c1.2,2.6,3.4,3.4,6.2,3.3c3.3-0.1,5-1.6,5.1-4.9c0.1-2,0-4,0-6c0-2.4,0.8-4.5,2.4-6.4c2.4-2.9,5.4-4,9-4c1.6,0,3.3,0,4.9,0
				c-0.7-20.9-8.6-38.9-23.7-54c-15.8-15.8-35-23.8-57.4-23.8c-22.6,0-41.9,8.1-57.9,24.4V11.7C23.1,3.9,19.3,0,11.6,0
				C3.9,0,0,3.9,0,11.6v138.9c0,0.6,0,1.1,0,1.7C4,152.2,7.8,152.2,8.9,152.2z"/>
		</g>
	</g>
</g>
<g>
	<rect x="-55.8" y="-274.1" class="st1" width="120" height="120"/>
	<rect x="80.2" y="-274.1" class="st2" width="120" height="120"/>
	<rect x="216.2" y="-274.1" class="st3" width="120" height="120"/>
	<rect x="352.2" y="-274.1" class="st4" width="120" height="120"/>
	<rect x="488.2" y="-274.1" class="st0" width="120" height="120"/>
</g>
</svg>
